<svg xmlns="http://www.w3.org/2000/svg" width="160" height="160" viewBox="0 0 160 160" role="img" aria-label="Повар">
  <defs>
    <linearGradient id="bgChef" x1="20" y1="18" x2="138" y2="142" gradientUnits="userSpaceOnUse">
      <stop stop-color="#fff8ec"/>
      <stop offset="1" stop-color="#d8eadf"/>
    </linearGradient>
  </defs>
  <rect width="160" height="160" rx="80" fill="url(#bgChef)"/>
  <circle cx="80" cy="78" r="58" fill="#fffdf8" opacity=".72"/>
  <path d="M42 148c5-31 22-48 38-48s33 17 38 48" fill="#f6f1e7"/>
  <path d="M58 148V112h44v36" fill="#fffaf0"/>
  <path d="M62 113h36" stroke="#064c3b" stroke-width="5" stroke-linecap="round"/>
  <circle cx="80" cy="72" r="29" fill="#d39162"/>
  <path d="M52 61c8-21 24-31 41-24 10 4 17 13 17 26-18-11-39-10-58-2Z" fill="#2d241d"/>
  <path d="M49 45c1-12 10-20 20-18 4-9 18-12 25-3 11-2 22 6 20 20 9 2 13 10 9 18H39c-5-10 0-18 10-17Z" fill="#fffdf8" stroke="#e6d7bf" stroke-width="3"/>
  <circle cx="69" cy="75" r="3" fill="#2b2112"/>
  <circle cx="92" cy="75" r="3" fill="#2b2112"/>
  <path d="M71 91c7 5 15 5 21 0" fill="none" stroke="#7b4a33" stroke-width="4" stroke-linecap="round"/>
</svg>
