<svg xmlns="http://www.w3.org/2000/svg" width="96" height="96" viewBox="0 0 96 96" role="img" aria-label="Поставщик">
  <defs><linearGradient id="bg" x1="10" y1="10" x2="86" y2="86" gradientUnits="userSpaceOnUse"><stop stop-color="#fff9ef"/><stop offset="1" stop-color="#d8eadf"/></linearGradient></defs>
  <rect width="96" height="96" rx="48" fill="url(#bg)"/>
  <path d="M30 40c0-18 9-28 20-28s20 10 20 28c0 13-7 23-20 23S30 53 30 40Z" fill="#b98224"/>
  <circle cx="50" cy="43" r="17" fill="#cf8d5a"/>
  <path d="M29 82c3-17 12-25 21-25s18 8 21 25" fill="#064c3b"/>
  <path d="M35 35c8-9 20-11 31-1-5-13-17-17-25-12-7 4-9 8-6 13Z" fill="#b98224"/>
  <circle cx="44" cy="45" r="2" fill="#2b2112"/><circle cx="57" cy="45" r="2" fill="#2b2112"/>
  <path d="M44 54c4 3 9 3 13 0" fill="none" stroke="#82482d" stroke-width="3" stroke-linecap="round"/>
  <path d="M37 63h26" stroke="#f7f0e6" stroke-width="5" stroke-linecap="round" opacity=".9"/>
</svg>
